<svg id="Layer_1" data-name="Layer 1" xmlns="http://www.w3.org/2000/svg" viewBox="0 0 250 100"><defs><style>.cls-1{fill:#ea5f40;}.cls-2{fill:#12100e;}</style></defs><path class="cls-1" d="M106,55.12A15.52,15.52,0,0,0,102.54,46a12.46,12.46,0,0,0-4.13-3.31,10.88,10.88,0,0,0-1.88-.77,14.43,14.43,0,0,0,1.88-1,11.89,11.89,0,0,0,5.83-10.44,18,18,0,0,0-1.7-8,14,14,0,0,0-4.13-5.05c-3.63-2.81-8.73-4.12-14.57-4.12H55.74V72.56h28.1c5.59,0,10.68-.88,14.57-3.09a14.51,14.51,0,0,0,4.13-3.4c2.2-2.64,3.47-6.22,3.47-10.95m-22.17-18H66.74V23.47h17.1c7.11,0,9.31,4.57,9.31,7.28,0,3.38-2.29,6.34-9.31,6.34m-17.1,9.82h17.1c4.57,0,11.09,2.8,11.09,8.13,0,5.58-6.52,7.11-11.09,7.11H66.74Z"/><path class="cls-1" d="M193.71,13.31H146.45a18.62,18.62,0,0,1,7.8,10.5h23.21L156.77,52.94a14.53,14.53,0,0,1,.18,2.18c0,5.25-1.46,12.8-8.79,17.44h45.55V62H163l30.72-43.42Z"/><path class="cls-1" d="M152.5,59a22.93,22.93,0,0,0,.32-3.84c0-3.72-2.54-11.08-9.48-13.2,5.5-2.46,7.7-6.86,7.7-11.43a18.85,18.85,0,0,0-1.12-6.68c-2.5-6.68-9-10-17.21-10.44q-1-.06-2.07-.06h-28.1v2.3a18.45,18.45,0,0,1,4.13,6,22.44,22.44,0,0,1,1.7,8.84,16.34,16.34,0,0,1-1.7,7.4,15.28,15.28,0,0,1-2.59,3.71,17.93,17.93,0,0,1,2.59,3,20.56,20.56,0,0,1,2.75,5.83,17.26,17.26,0,0,1,.72,4.66,25.54,25.54,0,0,1-.72,6.13,19.08,19.08,0,0,1-2.75,6.22,17.67,17.67,0,0,1-4.13,4.27v.82h28.1c6.71,0,12.71-1.27,16.77-4.58a14.41,14.41,0,0,0,5.09-9M130.64,37.09H113.55V23.47h17.09c7.11,0,9.31,4.57,9.31,7.28,0,3.38-2.28,6.34-9.31,6.34m-17.09,9.82h17.09c4.57,0,11.09,2.8,11.09,8.13,0,5.58-6.52,7.11-11.09,7.11H113.55Z"/><path class="cls-2" d="M55.73,86.63V80.32h3.14c1.24,0,1.86.25,1.86,1.64,0,.73-.14,1.21-.9,1.4v0c.88.1,1.05.68,1.05,1.48,0,1.4-.57,1.76-1.9,1.76ZM56.94,83h1.74c.69,0,.84-.21.84-.88s-.27-.72-.87-.72H56.94Zm0,2.64H58.6c.72,0,1.07,0,1.07-.83s-.15-.89-.87-.89H56.94Z"/><path class="cls-2" d="M63.82,86.63H62.61V80.32h1.21Z"/><path class="cls-2" d="M71,83.28v1.15c0,1.86-.47,2.25-2.72,2.25-2,0-2.78-.35-2.78-2.49V82.74c0-2.1.83-2.47,2.78-2.47,1.54,0,2.75-.08,2.71,2h-1.2c0-.92-.46-.91-1.51-.91-1.41,0-1.55.21-1.56,1.43v1.45c0,1.32.21,1.46,1.56,1.46,1.15,0,1.51,0,1.51-1.22V84.2H68.2v-.92Z"/><path class="cls-2" d="M76.52,86.63V80.32h3.13c1.24,0,1.86.25,1.86,1.64,0,.73-.13,1.21-.9,1.4v0c.89.1,1,.68,1,1.48,0,1.4-.57,1.76-1.9,1.76ZM77.73,83h1.74c.68,0,.83-.21.83-.88s-.27-.72-.87-.72h-1.7Zm0,2.64h1.65c.73,0,1.07,0,1.07-.83s-.15-.89-.86-.89H77.73Z"/><path class="cls-2" d="M84.57,84.54v2.09H83.35V80.32h3.23c1.38,0,1.91.46,1.91,1.89,0,.94,0,1.62-1.12,1.78v0c.86.08,1.07.54,1.07,1.43v1.18H87.22V85.45c0-.53-.21-.9-.8-.91Zm1.59-1c.9,0,1.11-.18,1.11-1.1s-.16-1-1-1H84.57v2.15Z"/><path class="cls-2" d="M91.38,85.44,91,86.63H89.73l2.09-6.31h1.79l2.14,6.31H94.52l-.42-1.19Zm1.37-4.19h0l-1.07,3.27h2.18Z"/><path class="cls-2" d="M101.75,80.32H103v6.31h-2l-2.68-5.27h0l.1,5.27H97.12V80.32h2l2.7,5.28h0Z"/><path class="cls-2" d="M104.88,80.32h3c1.74,0,2.48.63,2.48,2.35v1.49c0,1.31-.37,2.47-2.28,2.47h-3.21Zm3.21,5.28c.82,0,1.07-.74,1.07-1.44V82.67c0-1-.34-1.31-1.27-1.31h-1.8V85.6Z"/><path class="cls-2" d="M113,84.62v.29c0,.73.31.78,1.43.78s1.25-.2,1.25-.94c0-.9-.48-.78-1.42-.83-1.36-.08-2.44,0-2.44-1.87s1.1-1.78,2.61-1.78c1.29,0,2.34,0,2.34,1.7v.2h-1.21V82c0-.68-.28-.71-1.13-.71-1.2,0-1.4.12-1.4.79s.16.8,1.39.88c2,.12,2.48.22,2.48,1.82,0,1.78-.85,1.93-2.47,1.93-1.4,0-2.64,0-2.64-1.77v-.29Z"/><path class="cls-2" d="M123.33,84.62v.29c0,.73.32.78,1.43.78s1.26-.2,1.26-.94c0-.9-.48-.78-1.42-.83-1.37-.08-2.44,0-2.44-1.87s1.09-1.78,2.6-1.78c1.29,0,2.34,0,2.34,1.7v.2h-1.21V82c0-.68-.28-.71-1.13-.71-1.2,0-1.39.12-1.39.79s.16.8,1.39.88c1.94.12,2.47.22,2.47,1.82,0,1.78-.84,1.93-2.47,1.93-1.39,0-2.64,0-2.64-1.77v-.29Z"/><path class="cls-2" d="M133.13,86.63H132l-2-5.29h0l.1,5.29H128.9V80.32h1.95L132.56,85h0l1.68-4.69h2v6.31h-1.21l.1-5.32h0Z"/><path class="cls-2" d="M139.28,85.44l-.39,1.19h-1.26l2.1-6.31h1.78l2.14,6.31h-1.23L142,85.44Zm1.37-4.19h0l-1.08,3.27h2.18Z"/><path class="cls-2" d="M146.23,85.6h3v1H145V80.32h1.21Z"/><path class="cls-2" d="M151.82,85.6h3v1h-4.16V80.32h1.21Z"/><path class="cls-2" d="M159.92,80.32h2.8c1.69,0,2.24.4,2.24,2.17s-.59,2.1-2.24,2.1h-1.58v2h-1.22Zm2.8,3.23c.86,0,1-.17,1-1.06s-.12-1.14-1-1.13h-1.58v2.19Z"/><path class="cls-2" d="M167.79,84.54v2.09h-1.21V80.32h3.22c1.38,0,1.91.46,1.91,1.89,0,.94-.05,1.62-1.12,1.78v0c.86.08,1.07.54,1.07,1.43v1.18h-1.21V85.45c0-.53-.22-.9-.8-.91Zm1.6-1c.89,0,1.11-.18,1.11-1.1s-.16-1-1-1h-1.68v2.15Z"/><path class="cls-2" d="M174.75,86.63h-1.22V80.32h1.22Z"/><path class="cls-2" d="M180.44,82.43v-.34c0-.73-.29-.78-1.35-.78-1.22,0-1.43.2-1.43,1.43v1.4c0,1.26.16,1.51,1.43,1.51,1,0,1.42,0,1.42-.94v-.34h1.21v.41c0,1.9-1.06,1.83-2.63,1.9-2.22.09-2.61-.65-2.64-2.49V82.74c0-2,.79-2.47,2.64-2.47,1.58,0,2.48,0,2.56,1.82v.34Z"/><path class="cls-2" d="M184.52,82.93h2.95v1h-2.95V85.6h3.14v1h-4.35V80.32h4.32v1h-3.11Z"/><path class="cls-2" d="M190.37,84.62v.29c0,.73.32.78,1.43.78s1.26-.2,1.26-.94c0-.9-.48-.78-1.42-.83-1.37-.08-2.44,0-2.44-1.87s1.09-1.78,2.6-1.78c1.29,0,2.34,0,2.34,1.7v.2h-1.21V82c0-.68-.28-.71-1.13-.71-1.2,0-1.39.12-1.39.79s.16.8,1.39.88c1.94.12,2.47.22,2.47,1.82,0,1.78-.84,1.93-2.47,1.93-1.39,0-2.64,0-2.64-1.77v-.29Z"/></svg>